<svg xmlns="http://www.w3.org/2000/svg" viewBox="0 0 24 24" fill="currentColor">
  <path d="M4.459 4.208c.746.606 1.026.56 2.428.466l11.458-.84c1.12-.093 1.214.28 1.027.84l-2.054 12.518c-.187.934-.654 1.308-1.588 1.401l-11.83.84c-.934.094-1.308-.28-1.121-1.214l1.68-14.011zm3.827 3.549l-.934 8.78c.467.28.934.374 1.587.28l.934-8.873c-.56-.187-1.12-.28-1.587-.187zm5.51-1.027l-3.362 5.044-.28 3.736c.467.28.934.373 1.588.28l.28-2.615 2.802-4.11.28 6.538c.467.187.934.187 1.494.093l-.28-8.966c-.654-.187-1.214-.187-1.802 0z"/>
</svg>
